<mxfile host="Electron" modified="2024-05-03T11:51:15.904Z" agent="Mozilla/5.0 (Windows NT 10.0; Win64; x64) AppleWebKit/537.36 (KHTML, like Gecko) draw.io/24.2.5 Chrome/120.0.6099.109 Electron/28.1.0 Safari/537.36" etag="WVxpQ6FFJch8dwS_I75v" version="24.2.5" type="device">
  <diagram name="Page-1" id="13e1069c-82ec-6db2-03f1-153e76fe0fe0">
    <mxGraphModel dx="1233" dy="944" grid="1" gridSize="10" guides="1" tooltips="1" connect="1" arrows="1" fold="1" page="1" pageScale="1" pageWidth="1100" pageHeight="850" background="none" math="0" shadow="0">
      <root>
        <mxCell id="0" />
        <mxCell id="1" parent="0" />
        <mxCell id="7baba1c4bc27f4b0-2" value="Controller" style="shape=umlLifeline;perimeter=lifelinePerimeter;whiteSpace=wrap;html=1;container=1;collapsible=0;recursiveResize=0;outlineConnect=0;rounded=1;shadow=0;comic=0;labelBackgroundColor=none;strokeWidth=1;fontFamily=Verdana;fontSize=12;align=center;" parent="1" vertex="1">
          <mxGeometry x="510" y="80" width="100" height="630" as="geometry" />
        </mxCell>
        <mxCell id="7baba1c4bc27f4b0-10" value="" style="html=1;points=[];perimeter=orthogonalPerimeter;rounded=0;shadow=0;comic=0;labelBackgroundColor=none;strokeWidth=1;fontFamily=Verdana;fontSize=12;align=center;" parent="7baba1c4bc27f4b0-2" vertex="1">
          <mxGeometry x="45" y="100" width="10" height="440" as="geometry" />
        </mxCell>
        <mxCell id="7baba1c4bc27f4b0-7" value="Vault" style="shape=umlLifeline;perimeter=lifelinePerimeter;whiteSpace=wrap;html=1;container=1;collapsible=0;recursiveResize=0;outlineConnect=0;rounded=1;shadow=0;comic=0;labelBackgroundColor=none;strokeWidth=1;fontFamily=Verdana;fontSize=12;align=center;" parent="1" vertex="1">
          <mxGeometry x="990" y="80" width="70" height="630" as="geometry" />
        </mxCell>
        <mxCell id="kmpqGkEE_U1-asAorVke-6" value="" style="html=1;points=[];perimeter=orthogonalPerimeter;rounded=0;shadow=0;comic=0;labelBackgroundColor=none;strokeWidth=1;fontFamily=Verdana;fontSize=12;align=center;" vertex="1" parent="7baba1c4bc27f4b0-7">
          <mxGeometry x="30" y="110" width="10" height="20" as="geometry" />
        </mxCell>
        <mxCell id="e7TvPS1zG2CYtTujxWFE-16" value="" style="html=1;points=[];perimeter=orthogonalPerimeter;rounded=0;shadow=0;comic=0;labelBackgroundColor=none;strokeWidth=1;fontFamily=Verdana;fontSize=12;align=center;" vertex="1" parent="7baba1c4bc27f4b0-7">
          <mxGeometry x="30" y="345" width="10" height="45" as="geometry" />
        </mxCell>
        <mxCell id="7baba1c4bc27f4b0-8" value="User" style="shape=umlLifeline;perimeter=lifelinePerimeter;whiteSpace=wrap;html=1;container=1;collapsible=0;recursiveResize=0;outlineConnect=0;rounded=1;shadow=0;comic=0;labelBackgroundColor=none;strokeWidth=1;fontFamily=Verdana;fontSize=12;align=center;" parent="1" vertex="1">
          <mxGeometry x="100" y="80" width="100" height="650" as="geometry" />
        </mxCell>
        <mxCell id="7baba1c4bc27f4b0-9" value="" style="html=1;points=[];perimeter=orthogonalPerimeter;rounded=0;shadow=0;comic=0;labelBackgroundColor=none;strokeWidth=1;fontFamily=Verdana;fontSize=12;align=center;" parent="7baba1c4bc27f4b0-8" vertex="1">
          <mxGeometry x="45" y="100" width="10" height="540" as="geometry" />
        </mxCell>
        <mxCell id="7baba1c4bc27f4b0-30" value="return Favorites" style="html=1;verticalAlign=bottom;endArrow=open;dashed=1;endSize=8;labelBackgroundColor=none;fontFamily=Verdana;fontSize=12;edgeStyle=elbowEdgeStyle;elbow=vertical;" parent="1" source="7baba1c4bc27f4b0-7" target="7baba1c4bc27f4b0-2" edge="1">
          <mxGeometry x="0.6108" relative="1" as="geometry">
            <mxPoint x="800" y="626" as="targetPoint" />
            <Array as="points">
              <mxPoint x="680" y="210" />
              <mxPoint x="570" y="600" />
            </Array>
            <mxPoint x="870" y="600" as="sourcePoint" />
            <mxPoint x="1" as="offset" />
          </mxGeometry>
        </mxCell>
        <mxCell id="7baba1c4bc27f4b0-11" value="Opens Extension" style="html=1;verticalAlign=bottom;endArrow=block;entryX=0;entryY=0;labelBackgroundColor=none;fontFamily=Verdana;fontSize=12;edgeStyle=elbowEdgeStyle;elbow=vertical;" parent="1" source="7baba1c4bc27f4b0-9" target="7baba1c4bc27f4b0-10" edge="1">
          <mxGeometry x="-0.575" relative="1" as="geometry">
            <mxPoint x="220" y="190" as="sourcePoint" />
            <mxPoint as="offset" />
          </mxGeometry>
        </mxCell>
        <mxCell id="7baba1c4bc27f4b0-14" value="Request Favorites" style="html=1;verticalAlign=bottom;endArrow=block;labelBackgroundColor=none;fontFamily=Verdana;fontSize=12;edgeStyle=elbowEdgeStyle;elbow=vertical;" parent="1" source="7baba1c4bc27f4b0-10" target="7baba1c4bc27f4b0-7" edge="1">
          <mxGeometry x="-0.63" relative="1" as="geometry">
            <mxPoint x="370" y="200" as="sourcePoint" />
            <mxPoint x="445" y="200.00000000000023" as="targetPoint" />
            <Array as="points">
              <mxPoint x="680" y="190" />
            </Array>
            <mxPoint as="offset" />
          </mxGeometry>
        </mxCell>
        <mxCell id="7baba1c4bc27f4b0-40" value="Uses the Extension" style="shape=note;whiteSpace=wrap;html=1;size=14;verticalAlign=top;align=left;spacingTop=-6;rounded=0;shadow=0;comic=0;labelBackgroundColor=none;strokeWidth=1;fontFamily=Verdana;fontSize=12" parent="1" vertex="1">
          <mxGeometry x="100" y="30" width="100" height="35" as="geometry" />
        </mxCell>
        <mxCell id="7baba1c4bc27f4b0-41" value="Controls All Actions User can take" style="shape=note;whiteSpace=wrap;html=1;size=14;verticalAlign=top;align=left;spacingTop=-6;rounded=0;shadow=0;comic=0;labelBackgroundColor=none;strokeWidth=1;fontFamily=Verdana;fontSize=12" parent="1" vertex="1">
          <mxGeometry x="510" y="20" width="100" height="45" as="geometry" />
        </mxCell>
        <mxCell id="7baba1c4bc27f4b0-46" value="&lt;div&gt;&lt;span style=&quot;background-color: initial;&quot;&gt;Vault.wundermanthompson.com/api&lt;/span&gt;&lt;br&gt;&lt;/div&gt;&lt;div&gt;Stores Passwords for Company&lt;/div&gt;" style="shape=note;whiteSpace=wrap;html=1;size=14;verticalAlign=top;align=left;spacingTop=-6;rounded=0;shadow=0;comic=0;labelBackgroundColor=none;strokeWidth=1;fontFamily=Verdana;fontSize=12" parent="1" vertex="1">
          <mxGeometry x="840" y="30" width="240" height="35" as="geometry" />
        </mxCell>
        <mxCell id="kmpqGkEE_U1-asAorVke-3" value="Model" style="shape=umlLifeline;perimeter=lifelinePerimeter;whiteSpace=wrap;html=1;container=1;collapsible=0;recursiveResize=0;outlineConnect=0;rounded=1;shadow=0;comic=0;labelBackgroundColor=none;strokeWidth=1;fontFamily=Verdana;fontSize=12;align=center;" vertex="1" parent="1">
          <mxGeometry x="690" y="80" width="100" height="630" as="geometry" />
        </mxCell>
        <mxCell id="kmpqGkEE_U1-asAorVke-4" value="" style="html=1;points=[];perimeter=orthogonalPerimeter;rounded=0;shadow=0;comic=0;labelBackgroundColor=none;strokeWidth=1;fontFamily=Verdana;fontSize=12;align=center;" vertex="1" parent="kmpqGkEE_U1-asAorVke-3">
          <mxGeometry x="45" y="150" width="10" height="100" as="geometry" />
        </mxCell>
        <mxCell id="e7TvPS1zG2CYtTujxWFE-21" value="" style="html=1;points=[];perimeter=orthogonalPerimeter;rounded=0;shadow=0;comic=0;labelBackgroundColor=none;strokeWidth=1;fontFamily=Verdana;fontSize=12;align=center;" vertex="1" parent="kmpqGkEE_U1-asAorVke-3">
          <mxGeometry x="45" y="430" width="10" height="90" as="geometry" />
        </mxCell>
        <mxCell id="e7TvPS1zG2CYtTujxWFE-4" value="" style="html=1;points=[[0,0,0,0,5],[0,1,0,0,-5],[1,0,0,0,5],[1,1,0,0,-5]];perimeter=orthogonalPerimeter;outlineConnect=0;targetShapes=umlLifeline;portConstraint=eastwest;newEdgeStyle={&quot;curved&quot;:0,&quot;rounded&quot;:0};" vertex="1" parent="kmpqGkEE_U1-asAorVke-3">
          <mxGeometry x="55" y="170" width="10" height="40" as="geometry" />
        </mxCell>
        <mxCell id="FoZ7AM97Z-upclJYKBMe-4" value="" style="html=1;points=[[0,0,0,0,5],[0,1,0,0,-5],[1,0,0,0,5],[1,1,0,0,-5]];perimeter=orthogonalPerimeter;outlineConnect=0;targetShapes=umlLifeline;portConstraint=eastwest;newEdgeStyle={&quot;curved&quot;:0,&quot;rounded&quot;:0};" vertex="1" parent="kmpqGkEE_U1-asAorVke-3">
          <mxGeometry x="55" y="460" width="10" height="40" as="geometry" />
        </mxCell>
        <mxCell id="FoZ7AM97Z-upclJYKBMe-5" value="&lt;font style=&quot;font-size: 12px;&quot;&gt;Reformat and update Stored Data&lt;/font&gt;" style="html=1;align=left;spacingLeft=2;endArrow=block;rounded=0;edgeStyle=orthogonalEdgeStyle;curved=0;rounded=0;" edge="1" parent="kmpqGkEE_U1-asAorVke-3" target="FoZ7AM97Z-upclJYKBMe-4" source="kmpqGkEE_U1-asAorVke-3">
          <mxGeometry x="0.1345" y="4" relative="1" as="geometry">
            <mxPoint x="55" y="440" as="sourcePoint" />
            <Array as="points">
              <mxPoint x="116" y="450" />
              <mxPoint x="116" y="470" />
            </Array>
            <mxPoint as="offset" />
          </mxGeometry>
        </mxCell>
        <mxCell id="kmpqGkEE_U1-asAorVke-5" value="Stores Data Used for Display" style="shape=note;whiteSpace=wrap;html=1;size=14;verticalAlign=top;align=left;spacingTop=-6;rounded=0;shadow=0;comic=0;labelBackgroundColor=none;strokeWidth=1;fontFamily=Verdana;fontSize=12" vertex="1" parent="1">
          <mxGeometry x="690" y="20" width="100" height="45" as="geometry" />
        </mxCell>
        <mxCell id="kmpqGkEE_U1-asAorVke-10" value="View" style="shape=umlLifeline;perimeter=lifelinePerimeter;whiteSpace=wrap;html=1;container=1;collapsible=0;recursiveResize=0;outlineConnect=0;rounded=1;shadow=0;comic=0;labelBackgroundColor=none;strokeWidth=1;fontFamily=Verdana;fontSize=12;align=center;" vertex="1" parent="1">
          <mxGeometry x="290" y="80" width="100" height="650" as="geometry" />
        </mxCell>
        <mxCell id="kmpqGkEE_U1-asAorVke-11" value="" style="html=1;points=[];perimeter=orthogonalPerimeter;rounded=0;shadow=0;comic=0;labelBackgroundColor=none;strokeWidth=1;fontFamily=Verdana;fontSize=12;align=center;" vertex="1" parent="kmpqGkEE_U1-asAorVke-10">
          <mxGeometry x="45" y="260" width="10" height="380" as="geometry" />
        </mxCell>
        <mxCell id="kmpqGkEE_U1-asAorVke-12" value="Display Data and Controls to the User" style="shape=note;whiteSpace=wrap;html=1;size=14;verticalAlign=top;align=left;spacingTop=-6;rounded=0;shadow=0;comic=0;labelBackgroundColor=none;strokeWidth=1;fontFamily=Verdana;fontSize=12" vertex="1" parent="1">
          <mxGeometry x="290" y="20" width="100" height="45" as="geometry" />
        </mxCell>
        <mxCell id="e7TvPS1zG2CYtTujxWFE-9" value="Return Data&lt;div&gt;to update View&lt;/div&gt;" style="html=1;verticalAlign=bottom;endArrow=open;dashed=1;endSize=8;labelBackgroundColor=none;fontFamily=Verdana;fontSize=12;edgeStyle=elbowEdgeStyle;elbow=vertical;" edge="1" parent="1" source="kmpqGkEE_U1-asAorVke-3" target="7baba1c4bc27f4b0-2">
          <mxGeometry x="-0.0056" relative="1" as="geometry">
            <mxPoint x="570" y="220" as="targetPoint" />
            <Array as="points">
              <mxPoint x="650" y="320" />
              <mxPoint x="580" y="610" />
            </Array>
            <mxPoint x="1035" y="220" as="sourcePoint" />
            <mxPoint as="offset" />
          </mxGeometry>
        </mxCell>
        <mxCell id="e7TvPS1zG2CYtTujxWFE-10" value="Return Data&lt;div&gt;to update View&lt;/div&gt;" style="html=1;verticalAlign=bottom;endArrow=open;dashed=1;endSize=8;labelBackgroundColor=none;fontFamily=Verdana;fontSize=12;edgeStyle=elbowEdgeStyle;elbow=vertical;" edge="1" parent="1" source="7baba1c4bc27f4b0-2" target="kmpqGkEE_U1-asAorVke-11">
          <mxGeometry x="0.021" relative="1" as="geometry">
            <mxPoint x="380" y="340" as="targetPoint" />
            <Array as="points">
              <mxPoint x="460" y="340" />
              <mxPoint x="400" y="630" />
            </Array>
            <mxPoint x="560" y="340" as="sourcePoint" />
            <mxPoint x="1" as="offset" />
          </mxGeometry>
        </mxCell>
        <mxCell id="e7TvPS1zG2CYtTujxWFE-11" value="Display View to User" style="html=1;verticalAlign=bottom;endArrow=open;dashed=1;endSize=8;labelBackgroundColor=none;fontFamily=Verdana;fontSize=12;edgeStyle=elbowEdgeStyle;elbow=vertical;" edge="1" parent="1" source="kmpqGkEE_U1-asAorVke-10" target="7baba1c4bc27f4b0-8">
          <mxGeometry x="0.021" relative="1" as="geometry">
            <mxPoint x="175" y="425" as="targetPoint" />
            <Array as="points">
              <mxPoint x="250" y="360" />
              <mxPoint x="230" y="715" />
            </Array>
            <mxPoint x="390" y="425" as="sourcePoint" />
            <mxPoint x="1" as="offset" />
          </mxGeometry>
        </mxCell>
        <mxCell id="e7TvPS1zG2CYtTujxWFE-12" value="Open Specific Password" style="html=1;verticalAlign=bottom;endArrow=block;labelBackgroundColor=none;fontFamily=Verdana;fontSize=12;edgeStyle=elbowEdgeStyle;elbow=vertical;" edge="1" parent="1" source="7baba1c4bc27f4b0-8" target="kmpqGkEE_U1-asAorVke-10">
          <mxGeometry x="-0.0474" relative="1" as="geometry">
            <mxPoint x="200" y="440" as="sourcePoint" />
            <mxPoint x="600" y="440" as="targetPoint" />
            <mxPoint x="1" as="offset" />
            <Array as="points">
              <mxPoint x="245" y="390" />
            </Array>
          </mxGeometry>
        </mxCell>
        <mxCell id="e7TvPS1zG2CYtTujxWFE-13" value="Request Password with ID:*" style="html=1;verticalAlign=bottom;endArrow=block;labelBackgroundColor=none;fontFamily=Verdana;fontSize=12;edgeStyle=elbowEdgeStyle;elbow=vertical;" edge="1" parent="1" source="kmpqGkEE_U1-asAorVke-10" target="7baba1c4bc27f4b0-2">
          <mxGeometry x="-0.0474" relative="1" as="geometry">
            <mxPoint x="370" y="390" as="sourcePoint" />
            <mxPoint x="540" y="390" as="targetPoint" />
            <mxPoint x="1" as="offset" />
            <Array as="points">
              <mxPoint x="450" y="410" />
            </Array>
          </mxGeometry>
        </mxCell>
        <mxCell id="e7TvPS1zG2CYtTujxWFE-15" value="Request Password&lt;div&gt;&amp;nbsp;with ID:*&lt;/div&gt;" style="html=1;verticalAlign=bottom;endArrow=block;labelBackgroundColor=none;fontFamily=Verdana;fontSize=12;edgeStyle=elbowEdgeStyle;elbow=vertical;" edge="1" parent="1" source="7baba1c4bc27f4b0-2" target="7baba1c4bc27f4b0-7">
          <mxGeometry x="-0.6108" relative="1" as="geometry">
            <mxPoint x="640" y="410" as="sourcePoint" />
            <mxPoint x="1100" y="410" as="targetPoint" />
            <Array as="points">
              <mxPoint x="760" y="430" />
            </Array>
            <mxPoint x="1" as="offset" />
          </mxGeometry>
        </mxCell>
        <mxCell id="e7TvPS1zG2CYtTujxWFE-17" value="Return Password&lt;div&gt;with ID:*&lt;/div&gt;" style="html=1;verticalAlign=bottom;endArrow=open;dashed=1;endSize=8;labelBackgroundColor=none;fontFamily=Verdana;fontSize=12;edgeStyle=elbowEdgeStyle;elbow=vertical;" edge="1" parent="1" source="7baba1c4bc27f4b0-7" target="7baba1c4bc27f4b0-2">
          <mxGeometry x="0.6108" relative="1" as="geometry">
            <mxPoint x="570" y="500" as="targetPoint" />
            <Array as="points">
              <mxPoint x="730" y="470" />
              <mxPoint x="710" y="450" />
              <mxPoint x="580" y="890" />
            </Array>
            <mxPoint x="1020" y="500" as="sourcePoint" />
            <mxPoint x="1" as="offset" />
          </mxGeometry>
        </mxCell>
        <mxCell id="e7TvPS1zG2CYtTujxWFE-23" value="Return Data&lt;div&gt;to update View&lt;/div&gt;" style="html=1;verticalAlign=bottom;endArrow=open;dashed=1;endSize=8;labelBackgroundColor=none;fontFamily=Verdana;fontSize=12;edgeStyle=elbowEdgeStyle;elbow=vertical;" edge="1" parent="1" source="kmpqGkEE_U1-asAorVke-3" target="7baba1c4bc27f4b0-2">
          <mxGeometry x="-0.0056" y="-10" relative="1" as="geometry">
            <mxPoint x="640" y="740" as="targetPoint" />
            <Array as="points">
              <mxPoint x="640" y="590" />
              <mxPoint x="570" y="1160" />
            </Array>
            <mxPoint x="1015" y="740" as="sourcePoint" />
            <mxPoint as="offset" />
          </mxGeometry>
        </mxCell>
        <mxCell id="e7TvPS1zG2CYtTujxWFE-25" value="Return Data&lt;div&gt;to update View&lt;/div&gt;" style="html=1;verticalAlign=bottom;endArrow=open;dashed=1;endSize=8;labelBackgroundColor=none;fontFamily=Verdana;fontSize=12;edgeStyle=elbowEdgeStyle;elbow=vertical;" edge="1" parent="1" source="7baba1c4bc27f4b0-2" target="kmpqGkEE_U1-asAorVke-10">
          <mxGeometry x="-0.0045" relative="1" as="geometry">
            <mxPoint x="360" y="670" as="targetPoint" />
            <Array as="points">
              <mxPoint x="450" y="620" />
              <mxPoint x="370" y="1240" />
            </Array>
            <mxPoint x="540" y="670" as="sourcePoint" />
            <mxPoint x="1" as="offset" />
          </mxGeometry>
        </mxCell>
        <mxCell id="e7TvPS1zG2CYtTujxWFE-26" value="Display View to User" style="html=1;verticalAlign=bottom;endArrow=open;dashed=1;endSize=8;labelBackgroundColor=none;fontFamily=Verdana;fontSize=12;edgeStyle=elbowEdgeStyle;elbow=vertical;" edge="1" parent="1" source="kmpqGkEE_U1-asAorVke-10" target="7baba1c4bc27f4b0-8">
          <mxGeometry x="0.021" relative="1" as="geometry">
            <mxPoint x="130" y="680" as="targetPoint" />
            <Array as="points">
              <mxPoint x="240" y="640" />
              <mxPoint x="210" y="1075" />
            </Array>
            <mxPoint x="320" y="720" as="sourcePoint" />
            <mxPoint x="1" as="offset" />
          </mxGeometry>
        </mxCell>
        <mxCell id="e7TvPS1zG2CYtTujxWFE-5" value="&lt;font style=&quot;font-size: 12px;&quot;&gt;Reformat and save Data&lt;/font&gt;" style="html=1;align=left;spacingLeft=2;endArrow=block;rounded=0;edgeStyle=orthogonalEdgeStyle;curved=0;rounded=0;" edge="1" target="e7TvPS1zG2CYtTujxWFE-4" parent="1">
          <mxGeometry x="0.1408" y="4" relative="1" as="geometry">
            <mxPoint x="745" y="230" as="sourcePoint" />
            <Array as="points">
              <mxPoint x="745" y="240" />
              <mxPoint x="806" y="240" />
              <mxPoint x="806" y="260" />
            </Array>
            <mxPoint as="offset" />
          </mxGeometry>
        </mxCell>
        <mxCell id="FoZ7AM97Z-upclJYKBMe-3" value="Send Favorites" style="html=1;verticalAlign=bottom;endArrow=block;labelBackgroundColor=none;fontFamily=Verdana;fontSize=12;edgeStyle=elbowEdgeStyle;elbow=vertical;" edge="1" parent="1" target="kmpqGkEE_U1-asAorVke-3">
          <mxGeometry x="0.0588" relative="1" as="geometry">
            <mxPoint x="560" y="230" as="sourcePoint" />
            <mxPoint x="730" y="250" as="targetPoint" />
            <Array as="points">
              <mxPoint x="680" y="230" />
            </Array>
            <mxPoint as="offset" />
          </mxGeometry>
        </mxCell>
        <mxCell id="FoZ7AM97Z-upclJYKBMe-6" value="Send Password&lt;div&gt;&amp;nbsp;with ID:*&lt;/div&gt;" style="html=1;verticalAlign=bottom;endArrow=block;labelBackgroundColor=none;fontFamily=Verdana;fontSize=12;edgeStyle=elbowEdgeStyle;elbow=vertical;" edge="1" parent="1" source="7baba1c4bc27f4b0-2" target="kmpqGkEE_U1-asAorVke-3">
          <mxGeometry x="0.0056" relative="1" as="geometry">
            <mxPoint x="480" y="510" as="sourcePoint" />
            <mxPoint x="945" y="510" as="targetPoint" />
            <Array as="points">
              <mxPoint x="680" y="510" />
            </Array>
            <mxPoint as="offset" />
          </mxGeometry>
        </mxCell>
        <mxCell id="FoZ7AM97Z-upclJYKBMe-7" value="Press &quot;Add Password&lt;div&gt;&amp;nbsp;to Clipboard&quot;&lt;/div&gt;" style="html=1;verticalAlign=bottom;endArrow=block;labelBackgroundColor=none;fontFamily=Verdana;fontSize=12;edgeStyle=elbowEdgeStyle;elbow=vertical;" edge="1" parent="1" source="7baba1c4bc27f4b0-8" target="kmpqGkEE_U1-asAorVke-10">
          <mxGeometry x="-0.0474" relative="1" as="geometry">
            <mxPoint x="160" y="770" as="sourcePoint" />
            <mxPoint x="330" y="770" as="targetPoint" />
            <mxPoint x="1" as="offset" />
            <Array as="points">
              <mxPoint x="250" y="680" />
            </Array>
          </mxGeometry>
        </mxCell>
        <mxCell id="FoZ7AM97Z-upclJYKBMe-8" value="Add Password to Clipboard" style="html=1;verticalAlign=bottom;endArrow=open;dashed=1;endSize=8;labelBackgroundColor=none;fontFamily=Verdana;fontSize=12;edgeStyle=elbowEdgeStyle;elbow=vertical;" edge="1" parent="1" source="kmpqGkEE_U1-asAorVke-10" target="7baba1c4bc27f4b0-8">
          <mxGeometry x="-0.0045" relative="1" as="geometry">
            <mxPoint x="190" y="790" as="targetPoint" />
            <Array as="points">
              <mxPoint x="260" y="720" />
              <mxPoint x="230" y="710" />
              <mxPoint x="190" y="1410" />
            </Array>
            <mxPoint x="380" y="790" as="sourcePoint" />
            <mxPoint x="1" as="offset" />
          </mxGeometry>
        </mxCell>
      </root>
    </mxGraphModel>
  </diagram>
</mxfile>
